<?xml version="1.0" standalone="no"?>
<!DOCTYPE svg PUBLIC "-//W3C//DTD SVG 20010904//EN"
 "http://www.w3.org/TR/2001/REC-SVG-20010904/DTD/svg10.dtd">
<svg version="1.0" xmlns="http://www.w3.org/2000/svg"
 width="1222.000000pt" height="1016.000000pt" viewBox="0 0 1222.000000 1016.000000"
 preserveAspectRatio="xMidYMid meet">
<metadata>
Created by potrace 1.16, written by Peter Selinger 2001-2019
</metadata>
<g transform="translate(0.000000,1016.000000) scale(0.100000,-0.100000)"
fill="#000000" stroke="none">
<path d="M3293 8405 c-78 -25 -124 -52 -463 -270 -43 -28 -334 -252 -462 -357
-260 -212 -525 -502 -622 -679 -61 -113 -122 -347 -147 -559 -15 -131 -6 -457
16 -590 37 -226 119 -477 257 -795 93 -213 376 -683 607 -1007 69 -97 178
-264 242 -370 71 -118 127 -199 142 -208 51 -29 118 24 104 81 -7 27 -176 314
-247 419 -24 36 -87 126 -140 200 -352 491 -617 995 -744 1413 -105 347 -124
689 -55 1027 65 323 155 462 523 808 180 169 535 442 768 591 188 120 257 154
313 155 39 1 40 0 43 -38 7 -89 -80 -371 -158 -508 -52 -92 -60 -127 -35 -148
32 -27 187 -83 390 -141 116 -33 305 -89 420 -124 366 -111 637 -175 735 -175
30 0 51 11 117 64 249 200 783 486 840 450 30 -19 43 -76 33 -141 -9 -55 -165
-536 -265 -818 -124 -352 -196 -597 -240 -823 -126 -648 -116 -1082 37 -1546
145 -442 442 -811 753 -939 188 -77 489 -104 650 -59 115 33 277 121 371 201
79 67 173 180 220 266 40 70 45 71 88 15 58 -76 187 -193 286 -259 294 -196
655 -270 909 -185 92 30 219 105 325 192 191 156 399 478 490 757 31 94 69
272 87 405 8 58 13 207 14 385 0 252 -3 312 -24 458 -12 93 -21 170 -19 172 2
2 37 -23 78 -57 191 -155 409 -268 519 -268 94 0 171 52 215 143 67 140 96
507 61 792 -30 254 -98 567 -176 810 -145 456 -306 732 -494 845 -115 68 -293
93 -480 67 -202 -29 -791 -184 -947 -250 -62 -26 -78 -90 -32 -126 36 -28 80
-27 183 8 123 41 469 145 590 177 95 25 254 46 356 45 253 0 366 -88 520 -406
138 -284 250 -671 317 -1095 30 -190 32 -515 4 -655 -23 -115 -52 -184 -83
-196 -50 -19 -141 16 -297 113 -126 78 -366 288 -385 337 -6 14 -20 73 -32
131 -41 202 -162 557 -256 749 -108 220 -248 349 -380 351 -81 0 -153 -96
-153 -204 0 -68 37 -182 101 -310 124 -246 225 -393 465 -671 l112 -130 16
-85 c8 -47 28 -175 43 -285 44 -325 37 -738 -18 -1004 -46 -227 -121 -407
-246 -596 -177 -266 -385 -430 -597 -471 -75 -15 -102 -16 -184 -6 -258 30
-518 155 -710 339 -73 71 -121 142 -122 180 0 7 28 27 63 44 156 79 285 199
342 321 88 188 87 347 -5 451 -45 51 -103 82 -229 121 -162 51 -468 54 -671 5
-210 -49 -290 -124 -312 -290 -10 -76 -9 -91 11 -163 12 -44 41 -115 63 -159
34 -66 57 -93 133 -161 130 -116 252 -176 358 -176 35 0 38 -2 32 -22 -30
-102 -131 -240 -241 -329 -85 -70 -238 -152 -324 -175 -94 -26 -266 -24 -398
5 -208 44 -397 178 -553 391 -129 175 -200 315 -267 521 -137 421 -146 834
-30 1434 49 257 131 531 284 950 96 264 224 680 230 751 8 87 -12 163 -57 218
-59 70 -143 84 -266 44 -174 -57 -534 -268 -740 -433 l-83 -66 -91 16 c-118
20 -368 86 -644 169 -121 37 -283 83 -360 102 -198 49 -285 75 -285 86 0 5 11
28 24 51 31 53 122 300 141 381 8 33 15 95 15 136 0 93 -27 154 -80 182 -41
21 -143 23 -207 3z m5495 -1339 c60 -32 153 -161 211 -294 78 -177 189 -497
178 -509 -3 -2 -33 31 -68 74 -201 252 -396 628 -373 719 7 28 15 29 52 10z"/>
<path d="M2686 7028 c-118 -25 -175 -164 -109 -266 95 -146 322 -82 323 91 0
118 -99 199 -214 175z"/>
<path d="M3965 6557 c-114 -64 -112 -240 3 -305 86 -48 206 -12 246 73 26 55
18 142 -17 188 -52 68 -155 88 -232 44z"/>
<path d="M6457 6280 c-131 -40 -170 -209 -71 -302 83 -77 214 -58 270 38 49
84 18 206 -64 248 -37 19 -101 26 -135 16z"/>
<path d="M7975 6275 c-85 -30 -137 -124 -114 -207 16 -60 45 -97 93 -119 127
-58 267 37 254 172 -12 117 -126 193 -233 154z"/>
<path d="M2903 6244 c-12 -3 -34 -19 -49 -36 -40 -49 -34 -75 86 -362 60 -142
96 -145 326 -30 199 99 229 125 225 201 -3 63 -136 151 -295 197 -87 25 -243
41 -293 30z"/>
<path d="M3136 2878 c-14 -19 -16 -65 -16 -301 l0 -278 25 -25 c29 -29 58 -26
88 8 13 16 17 39 17 103 l0 83 53 45 52 46 97 -149 c102 -156 113 -166 171
-147 40 13 45 47 14 99 -14 24 -64 97 -111 163 l-85 120 83 80 c98 94 110 112
93 146 -9 17 -22 25 -48 27 -34 3 -42 -4 -177 -143 l-142 -146 0 123 c0 144
-9 168 -65 168 -24 0 -39 -7 -49 -22z"/>
<path d="M5485 2886 c-48 -22 -77 -60 -82 -110 -5 -37 0 -54 25 -99 l31 -54
-49 -32 c-65 -42 -90 -84 -90 -150 0 -114 83 -184 220 -184 66 0 144 25 180
58 14 12 21 10 59 -20 55 -44 94 -49 119 -17 20 27 14 42 -39 91 l-50 46 25
55 c31 66 32 82 8 103 -35 32 -59 21 -88 -35 l-27 -53 -48 55 c-27 30 -49 60
-48 65 0 6 19 24 42 40 23 17 50 47 61 68 16 34 17 44 6 83 -20 69 -64 98
-154 102 -45 1 -82 -3 -101 -12z m58 -358 c9 -13 39 -48 67 -78 48 -51 50 -55
33 -68 -27 -21 -79 -42 -103 -42 -60 0 -118 70 -104 125 6 24 66 85 83 85 5 0
16 -10 24 -22z"/>
<path d="M4036 2868 c-10 -14 -16 -44 -16 -84 0 -60 -1 -62 -29 -67 -52 -11
-50 -71 2 -79 21 -3 22 -8 27 -158 6 -180 14 -202 81 -220 75 -20 169 10 169
54 0 23 -28 39 -62 33 -65 -9 -68 -2 -68 153 l0 140 33 0 c37 0 57 15 57 42 0
21 -29 38 -64 38 -24 0 -26 3 -26 49 0 53 -14 101 -33 113 -23 15 -56 8 -71
-14z"/>
<path d="M4355 2876 c-15 -11 -20 -30 -23 -85 -4 -61 -7 -71 -23 -71 -10 0
-25 -10 -33 -22 -20 -28 -4 -58 29 -58 l25 0 0 -137 c0 -157 10 -206 47 -230
35 -23 141 -23 177 0 50 33 23 84 -38 74 -62 -10 -67 1 -64 153 l3 135 34 5
c69 10 67 72 -3 78 l-36 3 0 65 c0 51 -4 68 -20 84 -23 23 -49 25 -75 6z"/>
<path d="M6237 2872 c-15 -16 -17 -52 -17 -298 0 -153 4 -284 8 -290 16 -25
50 -34 77 -22 31 14 40 44 38 123 -2 33 0 75 3 93 l5 32 83 0 c45 0 105 7 133
15 154 46 178 263 38 342 -37 21 -53 23 -196 23 -138 0 -158 -2 -172 -18z
m297 -95 c50 -33 42 -126 -14 -154 -14 -7 -57 -13 -97 -13 -71 0 -71 0 -78 30
-7 32 -5 139 3 154 8 15 158 1 186 -17z"/>
<path d="M3776 2708 c-13 -19 -16 -57 -16 -218 0 -142 3 -201 13 -212 20 -27
52 -30 78 -9 23 19 24 23 27 202 2 100 1 193 -2 205 -14 54 -72 72 -100 32z"/>
<path d="M4607 2712 c-10 -10 -17 -28 -17 -40 0 -12 34 -106 75 -210 80 -199
83 -217 44 -267 -17 -21 -29 -25 -69 -25 -53 0 -75 -17 -65 -50 13 -42 122
-55 185 -21 46 24 69 71 176 354 82 219 85 229 69 253 -20 30 -59 32 -79 2 -8
-11 -38 -88 -67 -170 -29 -82 -55 -145 -59 -141 -4 4 -28 71 -54 149 -25 77
-53 150 -62 162 -18 27 -55 28 -77 4z"/>
<path d="M6822 2722 c-21 -14 -32 -73 -32 -177 0 -227 34 -287 162 -286 49 0
89 16 124 49 20 20 21 19 31 -8 14 -38 42 -52 74 -37 l24 13 3 208 c2 184 0
211 -14 227 -22 24 -56 24 -77 1 -13 -14 -17 -40 -18 -108 -1 -149 -11 -203
-43 -230 -18 -17 -40 -24 -66 -24 -64 0 -74 25 -78 200 -3 114 -7 149 -19 163
-17 18 -49 22 -71 9z"/>
<path d="M7346 2714 c-14 -13 -16 -55 -16 -309 0 -254 2 -296 16 -309 19 -20
44 -20 69 -2 17 12 20 30 23 119 l4 105 43 -30 c77 -55 176 -40 243 36 37 43
52 91 52 172 0 106 -40 181 -114 215 -69 31 -148 18 -203 -33 l-22 -21 -7 27
c-11 43 -59 60 -88 30z m272 -99 c62 -52 61 -207 -2 -248 -67 -44 -144 -10
-166 74 -37 137 75 252 168 174z"/>
<path d="M7886 2708 c-14 -19 -16 -65 -16 -303 0 -305 3 -325 55 -325 43 0 55
33 55 148 l0 104 35 -31 c20 -17 48 -33 63 -37 15 -3 33 -8 40 -10 7 -2 34 1
59 8 64 16 117 69 137 137 33 111 15 201 -53 272 -38 39 -54 48 -94 54 -60 9
-115 -6 -147 -40 -28 -30 -40 -32 -40 -7 0 24 -31 52 -58 52 -11 0 -28 -10
-36 -22z m273 -84 c31 -22 51 -73 51 -131 0 -65 -26 -114 -72 -136 -37 -18
-39 -18 -75 0 -47 22 -73 71 -73 136 0 91 41 147 110 147 20 0 46 -7 59 -16z"/>
<path d="M8390 2710 c-11 -11 -20 -24 -20 -29 0 -5 36 -102 81 -215 l81 -206
-24 -42 c-22 -41 -26 -43 -73 -46 -55 -4 -75 -15 -75 -43 0 -33 44 -52 110
-47 70 5 105 26 137 84 28 51 183 460 190 501 9 52 -33 81 -76 54 -7 -5 -39
-82 -71 -172 l-58 -164 -14 35 c-8 19 -30 80 -48 135 -35 108 -57 156 -74 167
-20 13 -45 9 -66 -12z"/>
</g>
</svg>
